<svg display="none"
   xmlns="http://www.w3.org/2000/svg">
   <symbol id='logo' viewBox="0 0 120 50">
      <path fill-rule="evenodd" clip-rule="evenodd" d="M4.8715 1.18665L2.59963 1.06278L1.66317 0.865112L1.47588 0.494156C1.47588 0.148247 1.70999 0 2.17886 0H25.6717C36.6802 0 44.4092 3.53491 48.9067 10.6291C51.4833 14.7326 52.7712 19.6025 52.7712 25.2385C52.7712 28.1805 52.3498 31.0229 51.4826 33.7665C50.4994 36.659 49.1409 39.2056 47.384 41.48C45.463 43.877 43.1212 45.7318 40.4273 47.0911C37.5461 48.4754 34.3141 49.1923 30.6837 49.1923H0.726074C0.234114 49.1923 0 49.019 0 48.7232C0 48.4016 0.351492 48.229 1.00701 48.229L6.74569 47.8587C7.63597 47.7342 8.26839 47.4621 8.57306 47.0918L9.15867 46.226C9.36969 45.6337 9.48707 44.7442 9.51016 43.5325V4.32624C9.51016 2.79368 8.69044 1.8541 7.09782 1.48315L4.8715 1.18665ZM17.5201 1.8541L17.3559 2.84309V46.3742C17.3559 46.8684 17.4495 47.2136 17.6368 47.3382L18.5739 47.4864H21.6655L28.8326 47.2143C30.753 46.9923 32.3924 46.6707 33.681 46.2253C34.9689 45.7318 36.187 45.0143 37.2408 44.1498C38.1779 43.3342 39.1381 42.1719 40.1926 40.6887C41.9487 38.2667 43.2136 35.1765 43.9865 31.3945C44.4547 28.9237 44.6895 26.5254 44.6895 24.2265C44.6895 22.1998 44.4085 20.0242 43.8229 17.6759C43.0032 14.2893 41.7615 11.323 40.0046 8.8014C36.6084 3.90722 31.0339 1.4845 23.328 1.4845H18.5733C18.0351 1.43373 17.6836 1.55761 17.5201 1.8541ZM57.3849 48.8213C57.3381 48.5241 57.5722 48.401 58.0879 48.401L59.7273 48.3509C60.6176 48.2277 61.1564 47.9068 61.3667 47.412L61.6714 45.6323V31.27C61.6714 30.7264 61.4835 30.306 61.1326 30.0589L59.9146 29.9344L58.2752 30.4049L57.3849 30.3548C57.2675 30.0583 57.619 29.7861 58.4387 29.5391C60.3828 28.9955 62.0935 28.303 63.545 27.4379C64.4346 26.8943 65.067 26.5971 65.348 26.4739L66.0509 26.4002C66.2851 26.4489 66.4031 26.9437 66.4031 27.8332V45.9275C66.4031 46.7919 66.5897 47.4106 66.9419 47.7809C67.3626 48.2263 68.3472 48.4483 69.8692 48.4483C70.408 48.4483 70.6883 48.5729 70.7364 48.8437C70.7364 49.067 70.5722 49.1408 70.2907 49.1408H57.8063C57.5253 49.1429 57.3849 49.0183 57.3849 48.8213ZM112.661 31.0229C111.514 32.284 110.741 33.7665 110.319 35.5461V46.0527C110.319 46.9916 110.624 47.659 111.256 48.0794L112.686 48.3502L114.184 48.5235C114.536 48.5736 114.677 48.648 114.677 48.845L114.607 49.0183L114.209 49.1429H101.677C101.303 49.1429 101.092 49.0183 101.092 48.8213L101.443 48.5242L103.552 48.3509C104.371 48.2026 104.887 47.9068 105.168 47.4614L105.52 46.3492V31.5177L105.285 30.4299L104.888 30.1828C104.77 30.0596 104.583 29.9858 104.301 29.9357C103.95 29.912 103.528 29.9858 103.084 30.1828L101.89 30.5294L101.21 30.3561C101.093 30.1828 101.14 30.0596 101.303 29.9858L102.31 29.5404C104.605 28.8235 106.456 28.0823 107.745 27.3167L109.337 26.4015L110.04 26.4502L110.321 27.069V32.5067C112.078 29.491 113.483 27.6376 114.444 27.0189C115.029 26.6486 115.591 26.3514 116.013 26.2282L116.833 26.1544C117.348 26.1043 117.934 26.2776 118.589 26.723C119.48 27.2666 119.948 28.0823 119.994 29.12C120.041 29.9858 119.806 30.654 119.291 31.1718C118.823 31.5922 118.354 31.7167 117.933 31.5922C117.535 31.5184 117.23 31.3451 117.02 31.098L116.364 30.2336C115.849 29.4416 115.357 29.1945 114.772 29.4179C114.09 29.6135 113.388 30.1584 112.661 31.0229ZM63.7092 10.7036C62.842 10.7036 62.1396 11.0251 61.5547 11.6431C60.9222 12.2612 60.6176 13.0518 60.6638 13.967C60.6176 14.8321 60.9216 15.5741 61.5547 16.1921C62.1396 16.8101 62.8426 17.131 63.7092 17.131C64.5282 17.131 65.255 16.8094 65.8399 16.1921C66.4249 15.5741 66.7533 14.8328 66.7533 13.967C66.7533 13.0518 66.4249 12.2612 65.8399 11.6431C65.255 11.0251 64.5282 10.7036 63.7092 10.7036ZM76.123 30.4292C76.9658 29.2432 78.0209 28.2543 79.2851 27.4636C80.4102 26.7711 81.5339 26.3264 82.7051 26.103L87.0385 25.8322C88.6067 25.906 90.0601 26.2275 91.3718 26.8449C94.534 28.328 96.5242 31.0479 97.2734 35.0025C98.0463 39.0072 97.3914 42.3946 95.3293 45.1382C93.5731 47.4614 91.2538 48.9445 88.3264 49.5869C85.2586 50.3038 82.4011 50.0811 79.8239 48.9696C76.4738 47.5352 74.4374 44.6927 73.7806 40.5398C73.195 36.6102 73.9678 33.2723 76.123 30.4292ZM89.8478 29.3177C88.4194 27.6376 86.6158 26.8957 84.4369 27.0926C82.3299 27.316 80.7135 28.5507 79.6591 30.899C78.6995 33.0252 78.3474 35.6219 78.6995 38.6864C78.9561 41.7271 79.8707 44.1492 81.3453 46.0033C82.9149 47.9562 84.6954 48.7719 86.6857 48.4016C88.7703 47.9813 90.2936 46.7939 91.3006 44.8173C92.2839 42.7906 92.6348 40.1702 92.4006 36.833C92.1203 33.4957 91.3013 31.0229 89.8478 29.3177Z" fill="#1B1B1B"/>
      <path fill-rule="evenodd" clip-rule="evenodd" d="M57.2208 30.4056V30.6527L56.7051 30.3061V30.4293L56.752 30.6527H56.6814C56.6814 30.6026 56.6814 30.4794 56.6814 30.3555V30.1822H56.7051L57.1734 30.5538V30.1822H57.267L57.2208 30.4056Z" fill="#1B1B1B"/>
      <path fill-rule="evenodd" clip-rule="evenodd" d="M58.0872 30.2323H57.8062V30.4056H58.0404V30.4293H57.8062V30.6026H58.0872V30.6533H57.7363V30.1822H58.0872V30.2323Z" fill="#1B1B1B"/>
      <path fill-rule="evenodd" clip-rule="evenodd" d="M59.3758 30.1822H59.3996L59.1654 30.6527H59.0949L58.9076 30.281L58.6966 30.6527H58.6728C58.5555 30.4293 58.4625 30.281 58.4387 30.1822H58.5561L58.6966 30.5538L58.9076 30.1822H58.9775L59.1417 30.5538L59.329 30.1822H59.3758Z" fill="#1B1B1B"/>
      <path fill-rule="evenodd" clip-rule="evenodd" d="M60.0313 30.4293L60.0781 30.6533H59.9614V30.48L59.7273 30.1822H59.844L60.0313 30.4293L60.2186 30.1822H60.3129L60.0313 30.4293Z" fill="#1B1B1B"/>
      <path fill-rule="evenodd" clip-rule="evenodd" d="M60.6874 30.2816C60.7335 30.2329 60.8516 30.1828 60.9683 30.1828C61.0863 30.1828 61.1562 30.2329 61.2499 30.2816C61.2723 30.3067 61.3198 30.3554 61.3198 30.4299L61.2499 30.6032C61.1562 30.6533 61.0857 30.6533 60.9683 30.6533C60.8516 30.6533 60.7342 30.6533 60.6874 30.6032L60.5693 30.4299C60.57 30.3554 60.6174 30.3067 60.6874 30.2816ZM61.1562 30.2816L60.9683 30.2329L60.7816 30.2816C60.7342 30.3067 60.688 30.3554 60.688 30.4299C60.688 30.48 60.7342 30.5287 60.7816 30.5544L60.9683 30.6533C61.0382 30.6533 61.1325 30.6032 61.1562 30.5544C61.2024 30.5294 61.2499 30.4807 61.2499 30.4299C61.2499 30.3554 61.2024 30.3067 61.1562 30.2816Z" fill="#1B1B1B"/>
      <path fill-rule="evenodd" clip-rule="evenodd" d="M61.8587 30.2323L61.835 30.4056H61.9049C62.0217 30.4056 62.0929 30.3555 62.0929 30.3067C62.0929 30.2817 62.0691 30.233 61.9511 30.233L61.8587 30.2323ZM61.9755 30.1822C62.0935 30.1822 62.1859 30.2323 62.1859 30.3067L62.0929 30.4056L61.9748 30.4293L62.2564 30.6527H62.1384L61.8575 30.4293H61.835L61.8587 30.6527H61.7407V30.1822H61.9755Z" fill="#1B1B1B"/>
      <path fill-rule="evenodd" clip-rule="evenodd" d="M63.1467 30.1822L62.8427 30.4056L63.1467 30.6533H63.0306L62.7722 30.4293V30.4056L62.7247 30.4293L62.7722 30.6533H62.6548V30.1822H62.7722L62.7247 30.4056H62.7722L63.0768 30.1822H63.1467Z" fill="#1B1B1B"/>
   </symbol>
   <symbol id='heart' viewBox="0 0 24 22">
      <path fill-rule="evenodd" clip-rule="evenodd" d="M3.48883 5.00387C2.76317 6.24787 2.52434 7.97403 2.9702 9.7575C3.13065 10.3992 3.59709 11.2243 4.33633 12.174C5.06122 13.1052 5.98646 14.0787 6.96642 15.0127C8.90951 16.8648 11.0007 18.4985 12.0001 19.254C12.9995 18.4985 15.0906 16.8648 17.0337 15.0127C18.0137 14.0787 18.9389 13.1052 19.6638 12.174C20.4031 11.2243 20.8695 10.3992 21.03 9.7575C21.4758 7.97403 21.237 6.24787 20.5113 5.00387C19.803 3.78965 18.6203 3 17.0001 3C15.5905 3 14.597 4.04228 13.8945 5.44721C13.557 6.12228 13.3276 6.80745 13.1824 7.33015C13.1103 7.58959 13.0603 7.80435 13.0287 7.95172C12.9168 8.47392 12.3144 8.5 12.0001 8.5C11.6858 8.5 11.0824 8.46905 10.9715 7.95172C10.9399 7.80436 10.8899 7.58959 10.8178 7.33015C10.6726 6.80745 10.4432 6.12229 10.1057 5.44722C9.40314 4.04228 8.40962 3 7.00004 3C5.37985 3 4.19712 3.78965 3.48883 5.00387ZM12.0001 4.77011C12.0342 4.69784 12.0694 4.62535 12.1057 4.55279C12.9032 2.95772 15.4096 0 18 0C20.3798 0 21.1972 2.21035 22.2389 3.99613C23.2632 5.75212 23.5244 8.02597 22.9702 10.2425C22.7077 11.2927 22.0355 12.3832 21.242 13.4025C20.4342 14.4402 19.4328 15.4891 18.4136 16.4605C16.3743 18.4042 14.1958 20.1022 13.1811 20.8683C12.4804 21.3974 11.5198 21.3974 10.8191 20.8683C9.80439 20.1022 7.62589 18.4042 5.58654 16.4605C4.56739 15.4891 3.56592 14.4402 2.75812 13.4025C1.96467 12.3832 1.29246 11.2927 1.02992 10.2425C0.475774 8.02597 0.736944 5.75213 1.76127 3.99613C2.80297 2.21035 4.12019 0 6.5 0C9.0904 0 11.097 2.95772 11.8945 4.55278C11.9308 4.62535 11.966 4.69784 12.0001 4.77011Z" fill="#0F0F0F" />
   </symbol>
   <symbol id='shop' idviewBox="0 0 20 22">
      <path fill-rule="evenodd" clip-rule="evenodd" d="M14.5284 5C14.5097 4.9193 14.4903 4.83842 14.47 4.75746C14.206 3.70138 13.7903 2.55383 13.1124 1.65C12.4134 0.71802 11.3928 0 9.99994 0C8.60704 0 7.58642 0.71802 6.88743 1.65C6.20956 2.55383 5.79381 3.70138 5.52979 4.75747C5.50955 4.83842 5.4901 4.9193 5.47139 5H3.87104C2.29165 5 0.982752 6.22455 0.877692 7.80044L0.144352 18.8004C0.0289224 20.532 1.40232 22 3.13771 22H16.8621C18.5975 22 19.9709 20.532 19.8555 18.8004L19.1221 7.80044C19.0171 6.22455 17.7082 5 16.1288 5H14.5284ZM5.47139 13.5C6.04437 13.5 6.998 9.5684 6.99995 8.99817C7.0001 8.97438 7.00038 8.9506 7.00078 8.92682C7.00166 8.87413 7.00345 8.79455 7.00712 8.69194C7.01445 8.48652 7.02924 8.18999 7.05899 7.83304C7.08009 7.57976 7.10852 7.29862 7.14668 7H12.8532C12.8913 7.29862 12.9197 7.57976 12.9409 7.83305C12.9706 8.18999 12.9854 8.48652 12.9927 8.69194C12.9964 8.79455 12.9982 8.87413 12.9991 8.92682C12.9995 8.95134 12.9998 8.97587 12.9999 9.0004C12.9999 9.0004 13.47 13.5 14.47 13.5C15.47 13.5 14.9999 8.99866 14.9999 8.99866C14.9998 8.9636 14.9994 8.92854 14.9988 8.89349C14.9977 8.829 14.9956 8.7367 14.9914 8.62056C14.9832 8.38848 14.9667 8.06001 14.9339 7.66695C14.9169 7.46202 14.8952 7.23812 14.8678 7H16.1288C16.6553 7 17.0916 7.40818 17.1266 7.93348L17.8599 18.9335C17.8984 19.5107 17.4406 20 16.8621 20H3.13771C2.55925 20 2.10145 19.5107 2.13992 18.9335L2.87326 7.93348C2.90828 7.40818 3.34458 7 3.87104 7H5.13202C5.10459 7.23812 5.08297 7.46202 5.06589 7.66696C5.03314 8.06001 5.01668 8.38848 5.00839 8.62056C5.00424 8.7367 5.00213 8.829 5.00106 8.89349C5.00048 8.92785 5.00005 8.96221 4.99994 8.99658C4.99918 9.5672 4.89972 13.5 5.47139 13.5ZM7.53346 5H12.4664C12.2352 4.15322 11.9209 3.39466 11.5124 2.85C11.0864 2.28198 10.607 2 9.99994 2C9.39284 2 8.91344 2.28198 8.48744 2.85C8.07894 3.39466 7.76466 4.15322 7.53346 5Z" fill="#0F0F0F" />
   </symbol>
   <symbol id='burger-open' x="0px" y="0px" viewBox="0 0 30 30">
      <path d="M 3 7 A 1.0001 1.0001 0 1 0 3 9 L 27 9 A 1.0001 1.0001 0 1 0 27 7 L 3 7 z M 3 14 A 1.0001 1.0001 0 1 0 3 16 L 27 16 A 1.0001 1.0001 0 1 0 27 14 L 3 14 z M 3 21 A 1.0001 1.0001 0 1 0 3 23 L 27 23 A 1.0001 1.0001 0 1 0 27 21 L 3 21 z"></path>
   </symbol>
   <symbol id='burger-close' viewBox="0 0 20 20">
      <path d="m10.71 10 4.65-4.66a.495.495 0 1 0-.7-.7L10 9.29 5.34 4.64a.495.495 0 0 0-.7.7L9.29 10l-4.65 4.66a.48.48 0 0 0 0 .7.48.48 0 0 0 .7 0L10 10.71l4.66 4.65a.48.48 0 0 0 .7 0 .48.48 0 0 0 0-.7z"></path>
   </symbol>
   <symbol id='arrow-right' width="51" height="16" viewBox="0 0 51 16" fill="none"
      xmlns="http://www.w3.org/2000/svg">
      <path d="M50.7071 8.70711C51.0976 8.31658 51.0976 7.68342 50.7071 7.29289L44.3431 0.928932C43.9526 0.538408 43.3195 0.538408 42.9289 0.928932C42.5384 1.31946 42.5384 1.95262 42.9289 2.34315L48.5858 8L42.9289 13.6569C42.5384 14.0474 42.5384 14.6805 42.9289 15.0711C43.3195 15.4616 43.9526 15.4616 44.3431 15.0711L50.7071 8.70711ZM0 9H50V7H0V9Z" fill="black" />
   </symbol>
   <symbol id='arrow-left' width="51" height="16" viewBox="0 0 51 16" fill="none"
      xmlns="http://www.w3.org/2000/svg">
      <path d="M0.292892 7.29289C-0.0976295 7.68342 -0.0976295 8.31658 0.292892 8.70711L6.65685 15.0711C7.04738 15.4616 7.68054 15.4616 8.07107 15.0711C8.46159 14.6805 8.46159 14.0474 8.07107 13.6569L2.41422 8L8.07107 2.34315C8.46159 1.95262 8.46159 1.31946 8.07107 0.928932C7.68054 0.538408 7.04738 0.538408 6.65685 0.928932L0.292892 7.29289ZM51 7L1 7V9L51 9V7Z" fill="black" />
   </symbol>
   <symbol id='arrow-down' viewBox="0 0 16 51" fill="none">
      <path d="M7.29289 50.7071C7.68342 51.0976 8.31658 51.0976 8.70711 50.7071L15.0711 44.3431C15.4616 43.9526 15.4616 43.3195 15.0711 42.9289C14.6805 42.5384 14.0474 42.5384 13.6569 42.9289L8 48.5858L2.34315 42.9289C1.95262 42.5384 1.31946 42.5384 0.928932 42.9289C0.538408 43.3195 0.538408 43.9526 0.928932 44.3431L7.29289 50.7071ZM7 0L7 50H9L9 0L7 0Z" fill="black" />
   </symbol>
</svg>



